<svg width="100" height="98" viewBox="0 0 100 98" fill="none" xmlns="http://www.w3.org/2000/svg">
<path d="M17.7083 0H82.2917C92.0833 0 100 7.91667 100 17.7083V79.7917C100 89.5833 92.0833 97.5 82.2917 97.5H17.7083C7.91667 97.5 0 89.5833 0 79.7917V17.7083C0 7.91667 7.91667 0 17.7083 0Z" fill="#001E36"/>
<path d="M22.5 68.375V25.5C22.5 25.2083 22.625 25.0416 22.9167 25.0416C23.625 25.0416 24.2917 25.0416 25.25 25C26.25 24.9583 27.2917 24.9583 28.4167 24.9166C29.5417 24.875 30.75 24.875 32.0417 24.8333C33.3333 24.7916 34.5833 24.7916 35.8333 24.7916C39.25 24.7916 42.0833 25.2083 44.4167 26.0833C46.5 26.7916 48.4167 27.9583 50 29.5C51.3333 30.8333 52.375 32.4583 53.0417 34.25C53.6667 36 54 37.7916 54 39.6666C54 43.25 53.1667 46.2083 51.5 48.5416C49.8333 50.875 47.5 52.625 44.7917 53.625C41.9583 54.6666 38.8333 55.0416 35.4167 55.0416C34.4167 55.0416 33.75 55.0416 33.3333 55C32.9167 54.9583 32.3333 54.9583 31.5417 54.9583V68.3333C31.5833 68.625 31.375 68.875 31.0833 68.9166C31.0417 68.9166 31 68.9166 30.9167 68.9166H23C22.6667 68.9166 22.5 68.75 22.5 68.375ZM31.5833 33.0833V47.0833C32.1667 47.125 32.7083 47.1666 33.2083 47.1666H35.4167C37.0417 47.1666 38.6667 46.9166 40.2083 46.4166C41.5417 46.0416 42.7083 45.25 43.625 44.2083C44.5 43.1666 44.9167 41.75 44.9167 39.9166C44.9583 38.625 44.625 37.3333 43.9583 36.2083C43.25 35.125 42.25 34.2916 41.0417 33.8333C39.5 33.2083 37.8333 32.9583 36.125 33C35.0417 33 34.0833 33 33.2917 33.0416C32.4583 33 31.875 33.0416 31.5833 33.0833Z" fill="#31A8FF"/>
<path d="M80.0001 44.5417C78.7501 43.875 77.4168 43.4167 76.0001 43.125C74.4584 42.7917 72.9168 42.5833 71.3334 42.5833C70.5001 42.5417 69.6251 42.6667 68.8334 42.875C68.2918 43 67.8334 43.2917 67.5418 43.7083C67.3334 44.0417 67.2084 44.4583 67.2084 44.8333C67.2084 45.2083 67.3751 45.5833 67.6251 45.9167C68.0001 46.375 68.5001 46.75 69.0418 47.0417C70.0001 47.5417 71.0001 48 72.0001 48.4167C74.2501 49.1667 76.4168 50.2083 78.4168 51.4583C79.7918 52.3333 80.9168 53.5 81.7084 54.9167C82.3751 56.25 82.7084 57.7083 82.6668 59.2083C82.7084 61.1667 82.1251 63.125 81.0418 64.75C79.8751 66.4167 78.2501 67.7083 76.3751 68.4583C74.3334 69.3333 71.8334 69.7917 68.8334 69.7917C66.9168 69.7917 65.0418 69.625 63.1668 69.25C61.7084 69 60.2501 68.5417 58.9168 67.9167C58.6251 67.75 58.4168 67.4583 58.4584 67.125V59.875C58.4584 59.75 58.5001 59.5833 58.6251 59.5C58.7501 59.4167 58.8751 59.4583 59.0001 59.5417C60.6251 60.5 62.3334 61.1667 64.1668 61.5833C65.7501 62 67.4168 62.2083 69.0834 62.2083C70.6668 62.2083 71.7918 62 72.5418 61.625C73.2084 61.3333 73.6668 60.625 73.6668 59.875C73.6668 59.2917 73.3334 58.75 72.6668 58.2083C72.0001 57.6667 70.6251 57.0417 68.5834 56.25C66.4584 55.5 64.5001 54.5 62.6668 53.25C61.3751 52.3333 60.2918 51.125 59.5001 49.7083C58.8334 48.375 58.5001 46.9167 58.5418 45.4583C58.5418 43.6667 59.0418 41.9583 59.9584 40.4167C61.0001 38.75 62.5418 37.4167 64.3334 36.5833C66.2918 35.5833 68.7501 35.125 71.7084 35.125C73.4168 35.125 75.1668 35.25 76.8751 35.5C78.1251 35.6667 79.3334 36 80.4584 36.4583C80.6251 36.5 80.7918 36.6667 80.8751 36.8333C80.9168 37 80.9584 37.1667 80.9584 37.3333V44.125C80.9584 44.2917 80.8751 44.4583 80.7501 44.5417C80.3751 44.625 80.1668 44.625 80.0001 44.5417Z" fill="#31A8FF"/>
</svg>
