<svg version="1.2" xmlns="http://www.w3.org/2000/svg" viewBox="0 0 137 137" width="137" height="137"><style>.a{fill:#fff}</style><path fill-rule="evenodd" class="a" d="m67.8 129.5c-34.8 0-62.8-28-62.8-62.8 0-34.7 28-62.7 62.8-62.7 34.7 0 62.7 28 62.7 62.8 0 34.7-28 62.7-62.8 62.7z"/><path  d="m68.5 0c-37.8 0-68.5 30.7-68.5 68.5 0 37.8 30.7 68.5 68.5 68.5 12 0 23.2-3.1 33-8.5l-49.7-69.3v39.2h-7.3v-53.7h7.3l54.1 81.2c18.7-12.2 31.1-33.3 31.1-57.4 0-37.8-30.7-68.5-68.5-68.5zm23.7 90.5l-8.1-12v-33.8h8.1z"/></svg>